# xmcd
#
# Track frame offsets:
#	150
#	151542
#	253202
#
# Disc length: 3406 seconds
#
# Revision: 1
# Processed by: cddbd v1.5.2PL0 Copyright (c) Steve Scherf et al.
# Submitted via: audiograbber 1.82.02
#
DISCID=190d4c03
DTITLE=ll - ll
DYEAR=4
DGENRE=ll
TTITLE0=Data Track
TTITLE1=Data Track
TTITLE2=Data Track
EXTD=
EXTT0=
EXTT1=
EXTT2=
PLAYORDER=
